Coordinates
version=1
nRows=19
nColumns=34
inDegrees=yes

Units are S.I. units (second, meters, Newtons, ...)
If the header above contains a line with 'inDegrees', this indicates whether rotational values are in degrees (yes) or radians (no).

endheader
time	pelvis_tilt	pelvis_list	pelvis_rotation	pelvis_tx	pelvis_ty	pelvis_tz	hip_flexion_r	hip_adduction_r	hip_rotation_r	knee_angle_r	ankle_angle_r	subtalar_angle_r	mtp_angle_r	hip_flexion_l	hip_adduction_l	hip_rotation_l	knee_angle_l	ankle_angle_l	subtalar_angle_l	mtp_angle_l	lumbar_extension	lumbar_bending	lumbar_rotation	arm_flex_r	arm_add_r	arm_rot_r	elbow_flex_r	pro_sup_r	arm_flex_l	arm_add_l	arm_rot_l	elbow_flex_l	pro_sup_l
      2.93333330	      3.67064312	      0.93438274	      2.20540691	      0.87888577	      0.93466403	     -0.07015164	     -3.07582152	     -3.56587342	    -18.15827143	      0.00000000	      6.73197583	      1.82864687	      0.00000000	     -2.21511053	     -2.99879651	    -16.88062782	      0.00000000	      4.26187738	      2.90239298	      0.00000000	     -8.10832507	      0.25531491	      0.00180259	      9.32224336	     -7.34941823	     17.14125569	     26.37183423	     78.31592864	     10.38364264	     -6.43896140	     13.92816561	     23.82107089	     69.20845599
      2.95000000	      3.59519713	      0.93971991	      2.28043709	      0.87772536	      0.93152432	     -0.07077588	     -2.90682293	     -3.58783281	    -18.10008679	      0.00000000	      6.75990142	      1.84939376	      0.00000000	     -2.05588285	     -2.95995325	    -16.90599295	      0.00000000	      4.25028707	      2.97363027	      0.00000000	     -8.25928888	      0.24652443	     -0.02299528	      9.76639273	     -7.44752482	     17.10682651	     26.50491639	     78.26713504	     10.85686901	     -6.51619670	     13.90695165	     23.91493407	     69.19301681
      2.96666670	      3.54604754	      0.93848769	      2.38579784	      0.88009870	      0.93341350	     -0.07106194	     -2.83334042	     -3.59417695	    -17.99723218	      0.00000000	      6.70579645	      1.81996655	      0.00000000	     -1.98247784	     -2.94724657	    -16.84854371	      0.00000000	      4.20710189	      3.09513048	      0.00000000	     -8.40521330	      0.23903742	     -0.08160295	     10.19525192	     -7.54814966	     17.08229880	     26.68488738	     78.20126041	     11.33685580	     -6.62032725	     13.88913045	     24.00246216	     69.17208573
      2.98333330	      3.49258683	      0.91009558	      2.44699522	      0.87885434	      0.92977781	     -0.07122841	     -2.73821158	     -3.56511292	    -17.93026221	      0.00000000	      6.67751385	      1.68902936	      0.00000000	     -1.90165268	     -2.94206544	    -16.79049116	      0.00000000	      4.31229437	      3.13856085	      0.00000000	     -8.53031307	      0.24966014	     -0.16749543	     10.78462462	     -7.70532282	     17.04476260	     26.92599808	     78.14469048	     11.97614014	     -6.74009390	     13.85871478	     24.14385512	     69.15293913
      3.00000000	      3.84595839	      0.85190970	      2.54424930	      0.87525263	      0.93247739	     -0.07116264	     -3.02610489	     -3.46539575	    -17.45397571	      0.00000000	      6.04779024	      0.54904793	      0.00000000	     -2.19429369	     -3.00129018	    -16.41293822	      0.00000000	      4.54212099	      3.24334811	      0.00000000	     -9.29787233	      0.36515579	     -0.48062923	     11.63723977	     -7.91801259	     17.18307237	     27.89693017	     77.85620067	     12.89232700	     -6.88746049	     13.87369925	     24.25681926	     69.04520447
      3.01666670	      3.64890264	      0.83059596	      2.55346742	      0.87241766	      0.92972084	     -0.07157154	     -2.67567385	     -3.44095907	    -17.35677312	      0.00000000	      6.11946220	      0.35670545	      0.00000000	     -1.85001297	     -2.98236163	    -16.49881988	      0.00000000	      4.62929384	      3.16231891	      0.00000000	     -9.44923346	      0.32846305	     -0.52853527	     12.61607672	     -8.11536738	     17.13432285	     28.23905866	     77.80159423	     14.01518308	     -7.10189211	     13.79547258	     24.55483346	     69.02033897
      3.03333330	      3.86015641	      0.82929848	      2.61298812	      0.87181456	      0.93171783	     -0.07227799	     -2.75967624	     -3.41711521	    -16.14782783	      0.00000000	      5.26116288	     -1.96021740	      0.00000000	     -1.89762644	     -2.95779553	    -16.21327625	      0.00000000	      4.59652274	      2.74454583	      0.00000000	    -10.20540907	      0.36482165	     -0.75019641	     13.68282557	     -8.49466418	     17.63560384	     29.77457832	     77.35902443	     15.28696977	     -7.34817428	     13.71598559	     24.89700243	     68.79845091
      3.05000000	      3.58570316	      0.79465244	      2.66401103	      0.86915541	      0.93574281	     -0.07302442	     -2.27490409	     -3.41793811	    -15.98294967	      0.00000000	      5.19584082	     -1.98308242	      0.00000000	     -1.42291715	     -2.94885463	    -16.14350230	      0.00000000	      4.60205409	      2.80152124	      0.00000000	    -10.29514432	      0.32616737	     -0.77841625	     14.94762119	     -8.62759737	     17.56582167	     30.14700081	     77.31214066	     16.64088223	     -7.47701069	     13.61946436	     25.26951174	     68.77336270
      3.06666670	      3.33477398	      0.75325964	      2.76837675	      0.86809593	      0.93931793	     -0.07418804	     -1.82543962	     -3.41039485	    -15.84948491	      0.00000000	      4.98065966	     -2.09085924	      0.00000000	     -0.95710125	     -2.92249579	    -16.10705129	      0.00000000	      4.50850424	      2.84730899	      0.00000000	    -10.45149312	      0.31258630	     -0.91195159	     16.30887248	     -8.75234201	     17.49586368	     30.58522928	     77.27223719	     18.18900285	     -7.62721032	     13.49705257	     25.67690839	     68.74656311
      3.08333330	      3.56643269	      0.77574565	      2.92295772	      0.86429232	      0.94163510	     -0.07589461	     -1.85580591	     -3.44365529	    -14.44788272	      0.00000000	      3.13155550	     -5.24475981	      0.00000000	     -0.99408431	     -2.83076485	    -15.64968238	      0.00000000	      3.84936375	      2.07104714	      0.00000000	    -11.45954763	      0.36658902	     -1.16530950	     18.04433015	     -9.13779956	     18.26200543	     32.06069841	     76.85257361	     20.08257628	     -7.81590583	     12.85700074	     25.98988569	     68.38209304
      3.10000000	      3.44469841	      0.76675329	      3.15982976	      0.86106537	      0.93955753	     -0.07770903	     -1.51209068	     -3.48746962	    -14.27112923	      0.00000000	      2.04264172	     -6.42933156	      0.00000000	     -0.68140539	     -2.71320875	    -15.61971707	      0.00000000	      3.17228067	      1.52647158	      0.00000000	    -11.92927705	      0.40741745	     -1.36200575	     19.92592563	     -9.35523903	     18.60300504	     32.74459861	     76.52063430	     22.03170209	     -7.89635401	     12.34519833	     26.41866385	     68.14355295
      3.11666670	      3.25666512	      0.83656892	      3.27890238	      0.85399794	      0.94055026	     -0.07801798	     -0.93980155	     -3.63495078	    -13.83343047	      0.08673518	      1.35802239	     -7.23258448	      0.00000000	     -0.16971426	     -2.53227393	    -15.50320433	      0.00000000	      2.42959498	      0.90711585	      0.00000000	    -12.49618143	      0.33841646	     -1.48709994	     22.15408930	     -9.58532200	     18.81357498	     33.49931807	     76.31011384	     24.27239439	     -8.02232824	     11.85808989	     26.96689071	     67.98007257
      3.13333330	      2.94671092	      0.75980786	      3.43674057	      0.84837741	      0.93925055	     -0.07931252	      0.16145763	     -3.74809052	    -13.82122169	      0.91591723	      1.07253855	     -7.47983070	      0.00000000	      0.53702593	     -2.47712183	    -15.23831669	      0.00000000	      2.36291557	      0.86590994	      0.00000000	    -12.98073107	      0.43873010	     -1.57182529	     24.63928057	     -9.82938880	     18.66910261	     34.09150454	     76.25828168	     26.81081517	     -8.15402911	     11.61929160	     27.62368042	     67.94290025
      3.15000000	      2.35177337	      0.76598384	      3.65400659	      0.84482080	      0.93883338	     -0.08059406	      1.67574579	     -3.97385068	    -12.91548652	      1.93460528	      0.15869535	    -10.07081519	      0.00000000	      1.86442777	     -2.35234790	    -14.42586699	      0.48964832	      1.55636089	     -1.03407240	      0.00000000	    -13.23789655	      0.40649192	     -1.66249763	     27.32230003	    -10.21577697	     19.70792463	     34.75659604	     76.05573298	     29.52241178	     -8.08479699	     10.68895084	     28.01125646	     67.68487367
      3.16666670	      2.09489176	      0.73983571	      3.93108210	      0.84341325	      0.93417155	     -0.08085616	      2.72601337	     -4.16970477	    -12.85229594	      2.92878017	      0.10356331	    -10.27870512	      0.00000000	      2.96974838	     -2.36694168	    -14.14802001	      1.38039194	      1.49165349	     -1.00453887	      0.00000000	    -13.80522826	      0.47363320	     -1.70847905	     30.16854876	    -10.54920233	     19.49795174	     35.36015015	     76.01032536	     32.36018257	     -8.23258753	     10.45186608	     28.82637045	     67.66067242
      3.18333330	      0.95328558	      0.57680460	      4.24098962	      0.84118035	      0.92986513	     -0.08173346	      4.96477310	     -4.32212584	    -12.12958292	      4.51534548	     -0.13681239	    -12.74642289	      0.00000000	      5.29117667	     -2.53025265	    -13.47042373	      2.87579949	      1.88996153	     -2.45775726	      0.00000000	    -13.21851843	      0.55138125	     -1.84906419	     32.88607655	    -10.99335002	     20.55729904	     35.98004602	     75.86907518	     34.93795229	     -8.16600278	      9.77128506	     29.50406181	     67.46228482
      3.20000000	      0.72134418	      0.53355260	      4.49508971	      0.84386773	      0.93049389	     -0.08259230	      6.03495563	     -4.55446553	    -11.95450133	      6.03513987	      0.24468550	    -13.56208720	      0.00000000	      6.41245692	     -2.65747315	    -13.08583216	      4.26632498	      2.23468522	     -2.84397310	      0.00000000	    -13.55639975	      0.59296377	     -1.81754071	     35.59509973	    -11.34448203	     20.53617415	     36.52547574	     75.80303450	     37.52396075	     -8.22815345	      9.51097703	     30.32465302	     67.40617686
      3.21666670	     -0.59933552	      0.38021870	      4.59690681	      0.84183910	      0.92600422	     -0.08288968	      8.38702100	     -4.69473389	    -10.71823137	      7.68818965	     -0.02937869	    -15.99210219	      0.00000000	      8.87403562	     -2.81226606	    -11.98330492	      6.00469571	      2.35301365	     -4.71989377	      0.00000000	    -12.47550236	      0.68161882	     -1.67169064	     38.23236960	    -11.85979889	     21.75863323	     36.93091755	     75.58879469	     39.78071330	     -8.25449850	      8.92481889	     31.12772324	     67.08795628
      3.23333330	     -1.43203118	      0.23865019	      4.80431824	      0.83747047	      0.92307832	     -0.08239901	     10.22634967	     -4.79233720	     -9.78330955	      9.34767379	      0.01064202	    -18.05410962	      0.00000000	     10.91166201	     -2.98594803	    -10.89019193	      7.87196430	      2.67697822	     -6.35291373	      0.00000000	    -12.10661250	      0.76009786	     -1.67402025	     41.23717467	    -12.16179573	     22.67234435	     37.17305172	     75.21627485	     42.40438651	     -8.27375568	      8.54647153	     31.86275974	     66.69868185
